# xmcd
# 
# Track frame offsets:
#     150
#     57151
#     96330
#     117873
#     199591
#     246001
# 
# Disc length: 3893
# 
# Revision: 4
# Processed by: cddbd v1.5.2PL0 Copyright (c) Steve Scherf et al.
# Submitted via: fre:ac v1.0.31
# 
DISCID=4a0f3306
DTITLE=千秋真一 - 千秋真一 指揮 R☆Sオーケストラ｜ブラームス：交響曲第1番
DYEAR=2005
DGENRE=Classical
TTITLE0=ブラームス：交響曲第1番ハ短調作品68第1楽章：ウン・ポーコ・ソステヌート-アレグロ
TTITLE1=ブラームス：交響曲第1番ハ短調作品68第2楽章：アンダンテ・ソステヌート
TTITLE2=ブラームス：交響曲第1番ハ短調作品68第3楽章：ウン・ポーコ・アレグレット・エ・グラチツィオーソ
TTITLE3=ブラームス：交響曲第1番ハ短調作品68第4楽章：アダージョ—ピウ・アンダンテ-アレググロ・ノン・トロッポ、マ・コン・ブリオーピウ・アレグロ
TTITLE4=ドヴォルザーク：交響曲第8番ト長調作品88第1楽章：アレグロ・コン・ブリオ(ブラティニ国際指揮者コンクール課題、間違い探しスコア版)
TTITLE5=ドヴォルザーク：交響曲第8番ト長調作品88第2楽章：アレグロ・コン・ブリオ(スブラフォン版)
EXTD=YEAR: 2005
EXTT0=
EXTT1=
EXTT2=
EXTT3=
EXTT4=
EXTT5=
PLAYORDER=
